Coordinates
version=1
nRows=30
nColumns=33
inDegrees=yes

Units are S.I. units (second, meters, Newtons, ...)
Angles are in degrees.

endheader
time	ground_thorax_rot_x	ground_thorax_rot_y	ground_thorax_rot_z	ground_thorax_tx	ground_thorax_ty	ground_thorax_tz	clav_prot_r	clav_elev_r	scapula_abduction_r	scapula_elevation_r	scapula_upward_rot_r	scapula_winging_r	shoulder_elv_r	plane_of_elev_r	axial_rot_r	elbow_flexion_r	pro_sup_r	wrist_flex_r	wrist_dev_r	clav_prot_l	clav_elev_l	scapula_abduction_l	scapula_elevation_l	scapula_upward_rot_l	scapula_winging_l	shoulder_elv_l	plane_of_elev_l	axial_rot_l	elbow_flexion_l	pro_sup_l	wrist_flex_l	wrist_dev_l	
2.5900	2.002504	7.181965	-0.198282	-0.186936	1.000689	0.015009	-17.619031	-9.298219	-22.910654	-4.898493	7.613583	2.788593	63.003737	-53.300558	57.641527	79.745231	22.130450	38.180316	-22.713044	-3.483264	-4.674135	3.656647	-3.617866	-5.000748	-1.792084	51.983332	-48.275276	-27.327878	78.849824	19.331613	-21.375081	-24.999883	
2.6000	1.948613	7.237732	-0.143461	-0.187164	1.000647	0.014919	-17.668345	-9.373584	-22.984998	-4.966488	7.601133	2.823155	63.013891	-53.250111	57.622237	79.839396	22.035745	38.219871	-22.809433	-3.434077	-4.673147	3.568458	-3.620132	-5.001184	-1.769533	51.942507	-48.179208	-27.160835	78.924891	19.255001	-21.320969	-24.999791	
2.6100	1.883195	7.309021	-0.107392	-0.187375	1.000586	0.014831	-17.738160	-9.469904	-23.097483	-5.050113	7.574562	2.870417	63.029704	-53.193103	57.601205	79.958182	21.902291	38.265861	-22.935152	-3.363188	-4.661077	3.445990	-3.635711	-5.008074	-1.737072	51.888269	-48.062201	-26.932011	79.021667	19.148651	-21.240578	-24.999625	
2.6200	1.808408	7.395708	-0.083220	-0.187576	1.000514	0.014751	-17.827842	-9.582388	-23.246856	-5.145680	7.536236	2.928053	63.049450	-53.129382	57.575388	80.110351	21.732258	38.306157	-23.072632	-3.275546	-4.639944	3.296132	-3.660843	-5.017130	-1.696002	51.824422	-47.926240	-26.649755	79.147039	19.016318	-21.132697	-24.999329	
2.6300	1.732338	7.489877	-0.055650	-0.187750	1.000412	0.014678	-17.927081	-9.683912	-23.412555	-5.232976	7.501512	2.980392	63.069710	-53.065549	57.536774	80.308506	21.551624	38.311645	-23.167564	-3.194753	-4.615799	3.154999	-3.684014	-5.015051	-1.654678	51.767564	-47.792931	-26.368186	79.310692	18.883220	-21.009950	-24.998798	
2.6400	1.653996	7.593988	-0.023967	-0.187903	1.000290	0.014615	-18.039023	-9.776090	-23.601861	-5.312173	7.466050	3.028969	63.092175	-52.993694	57.481957	80.557182	21.347239	38.249458	-23.187474	-3.116099	-4.588799	3.014276	-3.705454	-5.002586	-1.611085	51.719535	-47.661314	-26.086400	79.513225	18.744976	-20.850326	-24.997848	
2.6500	1.579430	7.701915	0.019657	-0.188027	1.000139	0.014561	-18.157720	-9.843073	-23.802995	-5.371355	7.438516	3.064511	63.114931	-52.912500	57.402396	80.865729	21.130119	38.081248	-23.077166	-3.053285	-4.563822	2.894502	-3.717064	-4.971688	-1.570158	51.691771	-47.544493	-25.841381	79.760384	18.616627	-20.650450	-24.996143	
2.6600	1.497060	7.832654	0.065702	-0.188152	0.999988	0.014526	-18.304716	-9.905345	-24.065947	-5.419262	7.386277	3.102986	63.149020	-52.788428	57.292533	81.244015	20.824788	37.682606	-22.730437	-2.969278	-4.535334	2.734728	-3.729592	-4.934394	-1.516807	51.682586	-47.428040	-25.592152	80.047326	18.461640	-20.304351	-24.993100	
2.6700	1.408317	7.983361	0.111972	-0.188272	0.999848	0.014507	-18.477286	-9.968084	-24.384115	-5.461196	7.311232	3.146376	63.196279	-52.623058	57.154928	81.681327	20.442514	37.084181	-22.176511	-2.866347	-4.504123	2.538773	-3.742149	-4.890375	-1.452157	51.686493	-47.308457	-25.334359	80.366729	18.281596	-19.826109	-24.987614	
2.6800	1.304258	8.166500	0.139255	-0.188402	0.999749	0.014499	-18.694186	-10.067354	-24.797629	-5.521461	7.184505	3.216737	63.279690	-52.392046	56.998023	82.171084	19.948620	36.280042	-21.415307	-2.715760	-4.463683	2.259508	-3.764760	-4.848065	-1.364083	51.679960	-47.161682	-25.004851	80.708517	18.044271	-19.160401	-24.977886	
2.6900	1.199969	8.355226	0.155618	-0.188530	0.999706	0.014486	-18.923229	-10.191571	-25.234503	-5.600466	7.043103	3.301052	63.383266	-52.128270	56.826852	82.671335	19.433167	35.426600	-20.589749	-2.557074	-4.424673	1.962134	-3.782777	-4.797434	-1.270237	51.659135	-46.994536	-24.648580	81.050570	17.790426	-18.432010	-24.960184	
2.7000	1.098965	8.543797	0.161240	-0.188649	0.999711	0.014465	-19.158091	-10.336929	-25.680476	-5.697141	6.895052	3.395765	63.498030	-51.839415	56.634314	83.179026	18.907008	34.541475	-19.719521	-2.398904	-4.388615	1.661073	-3.793821	-4.736418	-1.174539	51.623038	-46.806544	-24.275635	81.391882	17.526091	-17.658792	-24.929248	
2.7100	1.016795	8.705963	0.147688	-0.188745	0.999761	0.014427	-19.364294	-10.489397	-26.056768	-5.811850	6.783947	3.485820	63.579587	-51.562641	56.397353	83.664273	18.438602	33.741984	-18.933861	-2.285793	-4.368695	1.428853	-3.779649	-4.652105	-1.096851	51.573663	-46.592064	-23.930963	81.715584	17.287581	-16.959223	-24.871673	
2.7200	0.949162	8.845348	0.119904	-0.188813	0.999822	0.014372	-19.545528	-10.642758	-26.374453	-5.936625	6.702985	3.569703	63.625753	-51.296110	56.108266	84.142832	18.002741	32.982433	-18.191465	-2.211732	-4.356919	1.256888	-3.748512	-4.546368	-1.033490	51.513678	-46.355751	-23.612059	82.041367	17.064988	-16.298340	-24.774568	
2.7300	0.896915	8.954508	0.094478	-0.188874	0.999909	0.014304	-19.682711	-10.783370	-26.597906	-6.061704	6.663620	3.639400	63.615867	-51.053056	55.769550	84.586476	17.610227	32.280591	-17.525128	-2.181287	-4.356137	1.155159	-3.700035	-4.424835	-0.988592	51.456263	-46.105248	-23.346464	82.351304	16.870207	-15.709183	-24.626662	
2.7400	0.842984	9.058587	0.071314	-0.188938	0.999968	0.014237	-19.800149	-10.908909	-26.792847	-6.170694	6.621495	3.703273	63.556692	-50.800261	55.352619	85.050207	17.142569	31.418280	-16.728380	-2.157063	-4.344232	1.062776	-3.657839	-4.293748	-0.942017	51.406245	-45.837109	-23.097891	82.689844	16.651540	-15.010060	-24.366723	
2.7500	0.787671	9.156444	0.061384	-0.189036	1.000039	0.014173	-19.890897	-11.022884	-26.949446	-6.264872	6.572170	3.764174	63.458461	-50.531867	54.880532	85.502500	16.614046	30.422959	-15.820633	-2.132636	-4.327177	0.969852	-3.619450	-4.160301	-0.893541	51.367264	-45.554563	-22.871291	83.026078	16.417477	-14.215561	-23.999592	
2.7600	0.724763	9.257086	0.074474	-0.189152	1.000055	0.014116	-19.970054	-11.120459	-27.111101	-6.329464	6.484086	3.826240	63.359031	-50.223250	54.360256	85.987022	15.977327	29.224089	-14.696627	-2.087920	-4.287301	0.846948	-3.604969	-4.033151	-0.832379	51.333881	-45.267739	-22.634927	83.404832	16.149913	-13.225894	-23.480771	
2.7700	0.660802	9.352028	0.129983	-0.189294	1.000068	0.014063	-20.028855	-11.204786	-27.250804	-6.374421	6.378579	3.886623	63.274606	-49.891770	53.850638	86.449885	15.316787	27.997256	-13.521118	-2.028852	-4.241451	0.706692	-3.603841	-3.924680	-0.767839	51.313094	-44.991906	-22.410481	83.779285	15.889460	-12.184873	-22.886145	
2.7800	0.593777	9.446476	0.197777	-0.189439	1.000027	0.014017	-20.079326	-11.284981	-27.394892	-6.403844	6.241207	3.952385	63.192913	-49.519273	53.306480	86.923658	14.580720	26.669676	-12.231391	-1.954528	-4.185719	0.547355	-3.618965	-3.833290	-0.698099	51.307536	-44.706486	-22.179978	84.185284	15.626651	-11.035410	-22.170894	
2.7900	0.530684	9.536266	0.276509	-0.189580	1.000003	0.013969	-20.121454	-11.377367	-27.522456	-6.444477	6.104663	4.024254	63.115626	-49.129808	52.777087	87.349837	13.868462	25.431201	-11.027892	-1.878080	-4.144062	0.388781	-3.628641	-3.760318	-0.634651	51.319388	-44.413767	-21.963932	84.564418	15.396866	-9.958145	-21.456774	
2.8000	0.468580	9.625917	0.339374	-0.189713	0.999961	0.013922	-20.162684	-11.486395	-27.653470	-6.495455	5.953425	4.107649	63.020872	-48.699583	52.209186	87.751965	13.117154	24.169530	-9.817536	-1.796535	-4.109257	0.226243	-3.638821	-3.703999	-0.573890	51.349610	-44.088752	-21.747562	84.943620	15.174644	-8.878009	-20.679788	
2.8100	0.414602	9.711473	0.406193	-0.189835	0.999959	0.013867	-20.196844	-11.610914	-27.757692	-6.568487	5.824722	4.194282	62.912051	-48.265261	51.657982	88.077014	12.429641	23.052164	-8.774516	-1.723188	-4.096491	0.080015	-3.634418	-3.661955	-0.524929	51.393642	-43.746770	-21.561693	85.268279	14.979856	-7.955120	-19.949516	
2.8200	0.363097	9.803323	0.431963	-0.189957	0.999950	0.013806	-20.233609	-11.756756	-27.869255	-6.657210	5.683560	4.294173	62.753839	-47.782449	51.024670	88.371646	11.681018	21.836963	-7.682828	-1.648727	-4.091920	-0.066745	-3.625693	-3.627842	-0.478648	51.447621	-43.342468	-21.373209	85.582330	14.754062	-7.006140	-19.139733	
2.8300	0.327154	9.897719	0.446614	-0.190074	0.999965	0.013736	-20.264681	-11.911067	-27.960177	-6.760062	5.560792	4.394924	62.573398	-47.285616	50.372747	88.604639	10.964966	20.677046	-6.675618	-1.580756	-4.106686	-0.200792	-3.603981	-3.605745	-0.442129	51.499193	-42.897676	-21.200705	85.842781	14.513549	-6.146153	-18.346460	
2.8400	0.297092	9.994379	0.440447	-0.190197	0.999953	0.013662	-20.290922	-12.068374	-28.049861	-6.860750	5.424621	4.500616	62.359208	-46.739802	49.656616	88.804563	10.198986	19.425978	-5.602473	-1.508720	-4.124059	-0.335674	-3.586998	-3.601082	-0.408307	51.553107	-42.400654	-21.018515	86.092630	14.224730	-5.242145	-17.478900	
2.8500	0.276976	10.088429	0.446478	-0.190318	0.999947	0.013578	-20.307064	-12.221398	-28.118232	-6.960555	5.298735	4.602839	62.135917	-46.179146	48.943060	88.937996	9.467984	18.231609	-4.589057	-1.440243	-4.152401	-0.458624	-3.567575	-3.615335	-0.383267	51.602900	-41.882578	-20.838235	86.300079	13.911154	-4.394815	-16.633393	
2.8600	0.254954	10.177900	0.461063	-0.190442	0.999932	0.013487	-20.314582	-12.375459	-28.175989	-7.058508	5.166034	4.707886	61.892772	-45.590323	48.214885	89.007470	8.732279	17.029311	-3.575193	-1.369890	-4.182599	-0.578484	-3.553322	-3.646475	-0.361854	51.657724	-41.346392	-20.653393	86.489150	13.569808	-3.546441	-15.775049	
2.8700	0.233967	10.264231	0.498904	-0.190567	0.999923	0.013398	-20.311333	-12.520023	-28.216017	-7.148040	5.036273	4.808387	61.633367	-44.987152	47.493685	89.001660	8.019476	15.875940	-2.611341	-1.301032	-4.218610	-0.689563	-3.540987	-3.695507	-0.346745	51.715278	-40.797528	-20.468719	86.635217	13.204287	-2.734522	-14.936293	
2.8800	0.205351	10.343497	0.545061	-0.190695	0.999912	0.013312	-20.299119	-12.664906	-28.244142	-7.235584	4.901215	4.911018	61.343165	-44.356698	46.764038	88.922030	7.303460	14.724617	-1.661470	-1.232284	-4.257003	-0.795002	-3.532410	-3.759170	-0.335621	51.779762	-40.230634	-20.269846	86.752617	12.813235	-1.930186	-14.090686	
